<?xml version="1.0" encoding="UTF-8" standalone="no"?>
<!-- Created with Inkscape (http://www.inkscape.org/) -->

<svg
   version="1.1"
   id="svg2708"
   width="516.56482"
   height="520.138"
   viewBox="0 0 516.56481 520.138"
   sodipodi:docname="deam1g.svg"
   inkscape:version="1.2.2 (732a01da63, 2022-12-09, custom)"
   xmlns:inkscape="http://www.inkscape.org/namespaces/inkscape"
   xmlns:sodipodi="http://sodipodi.sourceforge.net/DTD/sodipodi-0.dtd"
   xmlns="http://www.w3.org/2000/svg"
   xmlns:svg="http://www.w3.org/2000/svg">
  <defs
     id="defs2712" />
  <sodipodi:namedview
     id="namedview2710"
     pagecolor="#ffffff"
     bordercolor="#000000"
     borderopacity="0.25"
     inkscape:showpageshadow="2"
     inkscape:pageopacity="0.0"
     inkscape:pagecheckerboard="0"
     inkscape:deskcolor="#d1d1d1"
     showgrid="false"
     inkscape:zoom="1.4842255"
     inkscape:cx="237.16072"
     inkscape:cy="241.20323"
     inkscape:window-width="1920"
     inkscape:window-height="1031"
     inkscape:window-x="0"
     inkscape:window-y="25"
     inkscape:window-maximized="1"
     inkscape:current-layer="layer1" />
  <g
     inkscape:groupmode="layer"
     id="layer1"
     inkscape:label="Layer 1"
     transform="translate(-34.69082,-37.609462)">
    <path
       style="fill:#000000;stroke-width:1.06667"
       d="m 372.34851,555.10522 c -1.80501,-1.51883 -3.28184,-3.6665 -3.28184,-4.77261 0,-3.85722 -6.09792,-5.63555 -18.42739,-5.37399 l -5.09406,0.10808 1.62739,3.14703 c 1.85751,3.59204 2.11562,6.45297 0.58217,6.45297 -2.2107,0 -23.4208,-8.96248 -33.03731,-13.96014 -5.54539,-2.88192 -11.30539,-5.24819 -12.8,-5.25838 -9.11034,-0.0621 -27.59408,-6.90514 -37.38414,-13.84036 -1.46666,-1.03898 -4.69496,-3.02577 -7.174,-4.41509 -2.47903,-1.38932 -9.27626,-6.72603 -15.10494,-11.85937 -5.82868,-5.13333 -11.25885,-9.33333 -12.06703,-9.33333 -2.42733,0 -24.48269,9.75303 -48.85403,21.60358 -12.61333,6.13324 -30.37333,14.28605 -39.46666,18.11737 -42.452569,17.88665 -51.631473,20.34956 -76.282909,20.46846 -15.08783,0.0728 -16.318779,-0.0781 -21.23548,-2.60236 -8.338982,-4.28133 -9.673241,-7.89013 -9.657321,-26.12038 0.0124,-14.18721 0.181916,-15.3739 3.392993,-23.75104 11.41209,-29.77218 30.163126,-56.56626 82.844287,-118.37941 l 3.06156,-3.59228 -2.7949,-13.70548 c -4.71022,-23.09768 -3.69068,-33.94583 4.15735,-44.23511 5.18169,-6.79356 23.10122,-18.72035 31.50268,-20.9674 l 4.7518,-1.27092 -3.45296,-13.7644 c -6.20978,-24.7539 -9.63729,-53.38123 -10.61138,-88.62867 l -0.6714,-24.29468 -3.55335,-1.68617 c -1.95434,-0.92741 -6.49031,-4.8258 -10.07992,-8.66311 -6.25969,-6.69163 -6.49883,-7.15048 -5.84792,-11.22109 1.11473,-6.97114 4.89293,-17.13468 7.36444,-19.81074 1.27183,-1.37709 4.23243,-3.48748 6.57909,-4.68974 3.75628,-1.92445 11.16528,-7.01793 15.26833,-10.49654 0.85123,-0.72168 2.92118,-0.9033 5.27095,-0.46248 2.90287,0.54458 5.15032,0.12587 8.99834,-1.67645 5.63426,-2.63894 6.20238,-3.93566 2.99572,-6.83765 -2.81044,-2.54341 -2.71661,-3.22323 1.1122,-8.0575 2.02881,-2.56158 5.92769,-5.399997 10.4,-7.571283 6.35718,-3.086379 8.22428,-3.486244 16.75446,-3.5882 10.40493,-0.124363 12.04587,-0.551124 17.42522,-4.531794 2.43553,-1.802268 3.39567,-3.256152 3.04242,-4.606965 -0.74809,-2.860728 7.52097,-10.123763 13.2949,-11.677409 2.55061,-0.686316 5.74005,-1.679623 7.08765,-2.20735 1.34761,-0.527726 5.2372,-0.959502 8.64353,-0.959502 3.40634,0 9.09995,-0.3038 12.65247,-0.675112 l 6.45914,-0.675114 -1.50267,-4.258995 c -2.03156,-5.758063 -1.94686,-6.121589 1.43068,-6.140775 6.05919,-0.03442 14.95057,-2.866127 17.99391,-5.730668 3.97449,-3.740978 14.00901,-9.880597 17.63303,-10.788773 6.87119,-1.721915 24.29502,5.659427 26.42339,11.193878 1.47179,3.827116 3.46972,14.519127 3.241,17.344329 -0.35577,4.394283 -0.002,4.816438 8.30867,9.926744 18.34908,11.282446 35.48392,23.794029 56.26667,41.084999 17.34277,14.42896 25.35916,22.64569 43.85862,44.95462 20.9903,25.31271 26.67355,34.40234 46.58487,74.50666 10.42225,20.99191 13.79238,29.09081 20.41775,49.06667 4.36434,13.15869 9.14802,29.44489 10.63042,36.19155 5.28712,24.06276 9.16262,62.24436 9.17066,90.34996 l 0.004,15.14996 3.71785,1.76424 c 2.04483,0.97032 6.65482,4.90385 10.24443,8.74116 6.25969,6.69163 6.49883,7.15049 5.84792,11.22109 -1.11473,6.97115 -4.89293,17.13468 -7.36444,19.81074 -1.27183,1.37709 -4.2177,3.48056 -6.54637,4.67436 -2.32866,1.1938 -5.53006,3.12882 -7.11421,4.30003 -1.88214,1.39152 -3.75793,1.9092 -5.41293,1.49382 -1.98752,-0.49884 -3.51393,0.31676 -7.09157,3.78924 -2.5074,2.4337 -5.31384,5.88476 -6.23653,7.66904 l -1.6776,3.24414 -4.07123,-4.72704 c -2.23917,-2.59987 -4.21164,-4.50663 -4.38327,-4.23722 -0.17162,0.2694 -0.79205,1.26343 -1.37872,2.20893 -4.61839,7.44326 -14.34691,19.7945 -18.61083,23.62812 -6.78606,6.10126 -14.77902,8.64477 -19.00364,6.04732 -4.07441,-2.50516 -17.31879,6.33939 -17.31879,11.56547 0,3.27847 -6.66522,10.05072 -14.28928,14.51871 -6.26744,3.67297 -17.71072,5.27031 -17.71072,2.4722 0,-2.8537 -2.21277,-7.67531 -2.99458,-6.52514 -0.40631,0.59776 -2.59382,2.21468 -4.86113,3.59315 -2.34812,1.42762 -4.7548,4.01994 -5.59178,6.02309 -1.6893,4.04306 -5.72747,6.28856 -14.16476,7.87658 -8.17145,1.53798 -9.17008,1.4073 -12.83924,-1.68008 z m 15.03335,-3.14344 c 4.28339,-0.90104 8.17187,-2.02214 8.64105,-2.49133 0.94064,-0.94064 -3.46353,-15.74414 -7.17924,-24.13125 -3.38201,-7.63389 -4.46798,-8.29265 -11.26679,-6.83456 l -5.62814,1.20702 0.63546,14.05859 c 0.34951,7.73223 1.12916,15.35711 1.73256,16.94418 1.28727,3.38578 2.39608,3.49164 13.0651,1.24735 z M 81.066667,549.7611 c 16.269627,-2.84044 48.544913,-14.68858 82.947633,-30.44976 67.95826,-31.13422 64.71436,-30.19181 76.00799,-22.0818 3.80108,2.72958 8.59104,6.73951 10.64438,8.91098 9.62233,10.17594 29.9718,21.17964 44.75192,24.19902 7.83595,1.60078 12.90859,3.51077 22.32965,8.40772 6.70469,3.48503 12.42547,6.10128 12.71285,5.81391 0.8656,-0.86561 -5.29467,-9.07674 -9.26487,-12.34932 -2.04132,-1.68262 -7.58555,-4.60537 -12.32052,-6.49498 -4.73496,-1.88961 -9.78497,-4.18698 -11.22222,-5.10527 -4.01757,-2.56692 -0.51096,-2.62105 6.80206,-0.10496 3.46198,1.1911 6.51261,1.9475 6.7792,1.68091 0.57707,-0.57707 -1.67359,-3.59776 -8.71986,-11.70323 -2.87014,-3.3016 -4.91585,-6.3055 -4.54602,-6.67532 0.80695,-0.80695 5.89806,4.37426 26.15901,26.62199 20.7854,22.82358 23.79257,24.30244 13.77289,6.7732 -4.109,-7.18861 -8.22553,-12.38991 -15.72657,-19.87078 -11.96768,-11.93551 -19.5491,-20.31398 -18.93615,-20.92694 0.53091,-0.5309 14.54567,7.61826 24.58901,14.29777 4.01154,2.66796 9.29154,7.17232 11.73334,10.0097 4.21747,4.90072 9.83049,7.99253 12.71558,7.0041 1.82637,-0.62572 -15.28022,-18.0634 -23.2093,-23.6585 -3.52,-2.48387 -11.2,-7.06461 -17.06667,-10.1794 -13.78954,-7.32133 -17.72633,-10.02487 -32.53402,-22.34236 -6.74706,-5.61241 -15.56402,-12.33787 -19.59325,-14.94546 -9.83695,-6.36619 -14.7901,-6.73029 -32.1394,-2.36249 -18.86885,4.75036 -36.22355,8.26742 -66.66666,13.51052 -14.96,2.57651 -37.04,6.38599 -49.06667,8.46553 -12.026666,2.07956 -26.087741,4.80288 -31.246835,6.05187 -5.159092,1.24898 -9.69052,1.96052 -10.069841,1.5812 -1.480084,-1.48008 2.775427,-3.83064 11.45001,-6.3245 8.594909,-2.47094 45.654316,-9.79755 62.933336,-12.44186 15.78883,-2.41625 16.5122,-2.87013 27.84956,-17.4743 4.70547,-6.06132 7.35044,-10.45013 7.35044,-12.19656 0,-5.18336 -4.40313,-11.8224 -13.72283,-20.69129 -13.25202,-12.61108 -29.0754,-20.04375 -42.67092,-20.04375 -4.29063,0 -5.19604,0.4857 -9.4452,5.06667 -2.58482,2.78666 -6.71534,7.70666 -9.17892,10.93333 -2.4636,3.22667 -9.073284,11.62667 -14.688202,18.66667 -27.634828,34.64863 -46.346206,65.98428 -50.461915,84.50779 -0.94192,4.23929 -1.826911,12.48332 -1.966647,18.32009 -0.239712,10.01277 -0.103733,10.77384 2.40695,13.47205 6.299659,6.77016 18.357987,7.99832 40.527681,4.12781 z M 429.99806,537.99036 c 3.93844,-2.06959 7.93544,-4.61885 8.88219,-5.66501 1.59919,-1.76707 1.46051,-2.29819 -1.95362,-7.4823 -2.02126,-3.06911 -5.48866,-9.6505 -7.70535,-14.62529 l -4.03033,-9.04508 -3.77584,0.70835 c -8.05868,1.51182 -8.8415,3.21753 -5.86779,12.78567 1.13511,3.65232 1.58982,8.86346 1.44266,16.53333 -0.1182,6.16 -0.14931,11.54812 -0.0691,11.9736 0.19569,1.0383 4.43553,-0.64221 13.07719,-5.18327 z m -60.29569,2.24824 c 0.78634,-3.13301 -0.47801,-18.61289 -1.52671,-18.69216 -0.38994,-0.0294 -4.42059,-0.21359 -8.95699,-0.40914 l -8.24799,-0.35554 4.35206,4.94246 c 2.39365,2.71837 4.84108,5.85526 5.43876,6.97088 0.93164,1.73901 0.80265,1.90831 -0.90408,1.18665 -1.09491,-0.46297 -3.91075,-1.32021 -6.25742,-1.90498 -8.21523,-2.04717 -10.46704,-3.33688 -18.00441,-10.3119 -7.83467,-7.25013 -14.37242,-12.31908 -15.02302,-11.64787 -0.20421,0.21067 2.98638,4.22303 7.09017,8.91636 4.1038,4.69334 9.2819,11.56915 11.50688,15.27959 l 4.04544,6.74624 10.52581,0.54365 c 5.78919,0.29901 10.7258,0.7432 10.97025,0.98709 1.44993,1.44666 4.39671,0.11749 4.99125,-2.25133 z m 35.19218,-1.15038 c 6.32984,-3.70952 7.90667,-6.23645 7.89928,-12.65887 -0.006,-5.7567 -1.69013,-17.54784 -2.6412,-18.49892 -0.77862,-0.77861 -11.32534,2.59867 -13.82647,4.42753 -1.89019,1.38215 -1.75666,1.71764 2.53771,6.37649 2.49308,2.70469 5.44861,5.20824 6.56784,5.56347 2.40375,0.76292 2.72611,2.63544 0.45369,2.63544 -2.20825,0 -11.21873,-8.84858 -11.21873,-11.01715 0,-2.06217 -4.24643,-2.4396 -7.55085,-0.67112 -2.00127,1.07104 -1.96584,1.2564 0.96831,5.06666 3.19597,4.15022 8.71587,15.91549 8.71587,18.57722 0,3.74225 1.9663,3.79066 8.09455,0.19925 z m 37.4045,-17.00207 c 0.76326,-1.989 -1.09201,-27.9013 -2.06751,-28.8768 -0.724,-0.724 -12.19907,3.57705 -12.99971,4.8725 -0.64819,1.04881 12.26162,25.65151 13.46016,25.65151 0.53624,0 1.2594,-0.74124 1.60706,-1.64721 z m -65.38135,-7.49523 c 1.25526,-0.37299 4.9223,-1.77553 8.14897,-3.11676 3.22667,-1.34123 9.94667,-3.97169 14.93333,-5.84547 13.50411,-5.07426 44.58636,-21.41995 59.73334,-31.41285 12.54968,-8.27941 29.43879,-21.2164 55.19616,-42.28005 l 11.16558,-9.1309 -0.1585,-14.8691 c -0.30821,-28.91326 -3.25551,-51.7733 -10.23718,-79.40244 -7.39574,-29.2677 -33.06635,-90.53206 -48.24955,-115.15021 -8.0597,-13.06807 -24.34961,-36.86643 -35.81047,-52.31646 -11.17536,-15.06517 -36.91053,-41.87301 -51.37271,-53.51399 -9.02891,-7.2676 -42.04563,-29.686019 -43.72008,-29.686019 -3.07787,0 -59.07204,19.802054 -73.53001,26.003519 -19.43328,8.33552 -50.90586,26.35054 -64.5171,36.92982 -4.90622,3.81333 -11.21587,8.51647 -14.02146,10.4514 -2.80559,1.93494 -7.14615,5.77494 -9.64568,8.53334 -2.49954,2.7584 -8.59067,8.40986 -13.53587,12.55882 l -8.99125,7.54356 0.15835,14.85644 c 0.35433,33.24181 4.48117,60.95914 13.60704,91.38978 1.53944,5.13333 3.23239,9.33333 3.7621,9.33333 0.5297,0 17.85404,-16.72693 38.49852,-37.17096 65.72058,-65.08244 77.45209,-74.9588 99.44027,-83.71543 15.23861,-6.06866 22.52366,-7.40757 37.29517,-6.85437 11.09575,0.41553 14.24264,0.97476 23.63518,4.2002 19.53718,6.70918 33.3917,16.44926 50.29068,35.35568 9.51934,10.65016 22.13126,29.0469 25.36023,36.99242 3.59607,8.84885 5.92292,21.66856 6.12913,33.76823 l 0.18478,10.84243 -5.98388,11.82424 c -3.29114,6.50333 -5.84004,11.82423 -5.66423,11.82423 0.17582,0 4.30857,-2.40518 9.18389,-5.34485 10.52823,-6.3482 22.76741,-11.2758 31.40823,-12.64522 3.44079,-0.5453 6.37263,-0.88397 6.5152,-0.7526 0.14256,0.13137 -4.89744,2.49384 -11.2,5.24992 -12.10442,5.29322 -44.56833,22.22477 -54.94374,28.65591 -6.24797,3.87276 -18.35847,7.72719 -28.68557,9.1298 -5.31593,0.72201 -6.18936,1.29044 -13.07157,8.50704 l -7.37499,7.73334 h 3.37499 c 1.85625,0 3.375,0.46767 3.375,1.03927 0,1.71917 -6.48871,4.52581 -9.2451,3.99888 -4.93094,-0.94261 -15.11268,4.32064 -40.13146,20.74516 -13.18696,8.65705 -39.31775,28.66655 -39.99356,30.62481 -0.16691,0.48361 1.88892,3.31777 4.5685,6.29811 6.68449,7.43475 12.04036,16.64555 12.86096,22.1177 0.44868,2.992 0.0674,6.69531 -1.10415,10.72543 -1.54904,5.32853 -2.88443,7.19849 -9.93958,13.91867 l -8.15014,7.76313 2.5816,2.74799 c 3.36155,3.5782 17.81158,13.34777 32.49168,21.96742 8.09588,4.75361 13.99413,9.20225 19.2508,14.51951 7.14365,7.22599 7.88197,7.68524 12.86125,8 4.86753,0.3077 17.85889,-1.33493 23.2669,-2.94185 z m 78.53531,-1.52054 3.9745,-1.07022 -2.91644,-8.26673 c -1.60404,-4.5467 -3.25741,-10.30673 -3.67417,-12.80007 -0.85604,-5.12142 -1.7513,-5.43108 -6.80097,-2.35246 -2.55855,1.55988 -3.36938,2.68028 -2.87398,3.97129 0.37957,0.98911 0.94349,6.6095 1.25319,12.48978 0.73286,13.91529 0.78016,14.04099 4.25455,11.30804 1.54485,-1.21517 4.59734,-2.69101 6.78332,-3.27963 z m 16.56605,-1.75557 c 9.93582,-6.59301 11.14071,-9.7994 6.34044,-16.87298 -1.48894,-2.19408 -4.37652,-7.30414 -6.41685,-11.35569 l -3.7097,-7.36647 -6.50702,3.28473 -6.507,3.28474 0.67205,4.45544 c 1.3855,9.18532 6.33492,23.41578 8.32512,23.93623 1.05448,0.27575 1.91724,1.16539 1.91724,1.97696 0,2.09848 1.06594,1.85526 5.88572,-1.34296 z m 32.06559,-33.47905 c 3.18011,-3.24368 5.78202,-6.25885 5.78202,-6.70038 0,-2.02786 -12.19298,-16.78721 -13.465,-16.2991 -0.7688,0.29502 -3.85083,2.35755 -6.84896,4.58341 -5.32933,3.95656 -5.4354,4.14235 -4.7463,8.31367 0.90171,5.45828 2.57258,23.42097 2.62221,28.18993 0.0376,3.6185 0.0945,3.57403 5.45603,-4.26666 2.9799,-4.3578 8.0199,-10.57719 11.2,-13.82087 z m -19.36658,8.83094 c -1.59236,-22.25945 -2.15623,-23.20408 -9.81726,-16.44654 l -4.56584,4.02739 5.18724,9.00957 c 7.14507,12.41005 8.0638,13.80958 9.0654,13.80958 0.48095,0 0.53966,-4.68 0.13046,-10.4 z m 25.60136,-2.73936 c 1.29113,-5.12042 0.13545,-6.06704 -3.26071,-2.67087 -2.35243,2.35242 -2.56551,3.07551 -1.49545,5.07491 1.71466,3.20389 3.57982,2.26114 4.75616,-2.40404 z m 8.71539,-6.59398 c 2.16125,-1.46666 4.63599,-2.66666 5.49941,-2.66666 1.2323,0 1.41082,-0.84779 0.83021,-3.9427 -0.80519,-4.29205 -9.50132,-28.81642 -10.61183,-29.92693 -0.37616,-0.37615 -1.96379,0.59595 -3.52806,2.16024 l -2.84415,2.84414 2.35537,5.68277 c 2.70476,6.52571 5.88519,20.73492 5.18169,23.15022 -0.26148,0.89774 -0.82123,2.47226 -1.2439,3.49892 -1.02653,2.49353 -0.29403,2.35916 4.36126,-0.8 z m -5.40593,-9.86667 c -1.11368,-6.00473 -6.97503,-19.46666 -8.47582,-19.46666 -0.723,0 -2.36037,1.11324 -3.63862,2.47387 l -2.32409,2.47389 5.985,6.85945 c 3.29176,3.7727 6.49097,7.93945 7.10938,9.25945 1.66098,3.54544 2.18318,2.92387 1.34415,-1.6 z m 24.13893,0 c 4.83832,-4.35821 7.73416,-9.94422 8.90537,-17.17822 0.71925,-4.44245 0.54953,-4.855 -3.89391,-9.46595 -5.1203,-5.3133 -13.22841,-10.95583 -15.74314,-10.95583 -1.87513,0 -9.7028,7.33232 -9.7028,9.0888 0,0.65405 2.43551,7.15663 5.41225,14.45019 2.97674,7.29356 5.84486,14.34101 6.3736,15.66101 1.36115,3.39813 3.54933,2.99332 8.64863,-1.6 z M 289.06667,462.855 c 2.39504,-4.2407 2.65854,-5.86245 2.5869,-15.92164 -0.0628,-8.81876 -0.56769,-12.4338 -2.37469,-17.00309 -2.82782,-7.1506 -2.27155,-8.28222 0.99965,-2.03362 2.03747,3.89196 2.52058,6.86396 3.00774,18.50338 0.34756,8.30362 1.00832,13.80752 1.64707,13.71922 0.58666,-0.0811 2.12967,-3.20109 3.4289,-6.93333 2.95025,-8.47508 3.12448,-17.98397 0.43705,-23.85256 -3.02719,-6.61051 -10.38307,-15.21098 -15.04314,-17.58836 -2.31999,-1.18357 -4.70288,-3.05766 -5.29532,-4.16466 -0.59244,-1.10698 -4.17978,-4.45095 -7.97186,-7.43103 -7.86551,-6.18125 -11.85501,-12.26091 -12.94265,-19.72351 -0.89706,-6.15483 -1.68909,-5.35123 -4.87193,4.9431 -2.80043,9.0575 -1.94792,11.62803 6.15114,18.54726 14.52332,12.40768 20.9684,28.74635 18.44154,46.75053 -0.57636,4.10667 -1.30276,8.28517 -1.61422,9.28556 -0.39344,1.2637 0.81247,2.81765 3.95075,5.09101 2.48436,1.79967 5.02988,3.1059 5.65671,2.90275 0.62683,-0.20314 2.33969,-2.4941 3.80636,-5.09101 z m -5.16492,-3.12164 c 0,-1.46667 0.24211,-2.06667 0.53802,-1.33333 0.2959,0.73333 0.2959,1.93333 0,2.66666 -0.29591,0.73334 -0.53802,0.13334 -0.53802,-1.33333 z m 2.17287,-11.2 c 0.0218,-1.76 0.2608,-2.35087 0.53124,-1.31303 0.27044,1.03783 0.25266,2.47783 -0.0396,3.2 -0.29219,0.72216 -0.51346,-0.12697 -0.49172,-1.88697 z M 284.8,441.2908 c 0,-10.64736 -7.06919,-26.89824 -14.87833,-34.20278 -5.78618,-5.41229 -5.91908,-6.11591 -0.52553,-2.78251 4.34501,2.68536 10.06496,11.21685 13.20335,19.69319 2.27649,6.14849 4.31124,20.80133 2.88855,20.80133 -0.37842,0 -0.68804,-1.57916 -0.68804,-3.50923 z m -96.53333,16.38717 c 8.8,-1.71282 20.32,-4.14069 25.6,-5.39528 5.28,-1.25458 14.11674,-3.21634 19.6372,-4.35946 5.52047,-1.14312 10.68047,-2.61225 11.46667,-3.26474 0.78621,-0.65249 1.42946,-2.93722 1.42946,-5.07717 0,-4.32025 -3.8596,-19.29369 -5.36852,-20.82735 -0.58136,-0.59089 -2.13186,0.18886 -3.90871,1.9657 -6.36213,6.36215 -14.66731,9.09093 -31.05495,10.20356 -16.09943,1.09305 -17.14748,1.68491 -29.29438,16.54346 -4.79602,5.86667 -9.45204,11.25141 -10.34673,11.96608 -2.77735,2.21854 4.38106,1.64337 21.83996,-1.7548 z m 85.70366,-0.41486 c 3.89135,-4.6888 2.09011,-24.70635 -3.15881,-35.1044 -3.23558,-6.40966 -17.30109,-22.158 -18.61591,-20.84319 -1.23993,1.23994 0.60482,4.612 8.04575,14.70702 4.09891,5.56095 8.19746,12.27082 9.10789,14.91082 2.69438,7.81297 3.15278,15.93366 1.16763,20.6848 -1.30474,3.12267 -1.43477,4.50321 -0.52714,5.59683 1.51085,1.82045 2.49975,1.83241 3.98059,0.0481 z m -4.39772,-6.59642 c 3.20637,-9.01102 -0.32996,-19.98793 -11.08812,-34.41796 -4.05863,-5.44389 -6.96605,-10.50979 -7.39094,-12.87805 -0.38524,-2.1472 -1.0866,-4.62399 -1.55859,-5.50399 -0.96794,-1.80468 -0.59984,-2.52614 -3.66708,7.18746 -0.97037,3.0731 -2.20762,5.86143 -2.74944,6.19627 -1.72809,1.06803 -1.07747,4.55767 2.62997,14.1059 1.98828,5.12071 3.94336,11.47037 4.34458,14.11037 0.40124,2.64 0.96311,5.62836 1.24859,6.64077 0.59327,2.10387 12.96058,9.49129 15.21897,9.09081 0.82162,-0.1457 2.17705,-2.18491 3.01206,-4.53158 z M 192,426.634 c 0,-0.44873 -2.59603,-4.13371 -5.76895,-8.18884 -13.25801,-16.94431 -33.12821,-28.29474 -55.59457,-31.75719 -3.69448,-0.56939 -4.65514,-0.28085 -6.8526,2.05825 -1.40566,1.49626 -2.2743,2.72047 -1.93031,2.72047 2.30198,0 17.1303,3.35297 21.07976,4.76655 13.37347,4.78657 32.39164,20.23573 37.92824,30.8105 l 3.0241,5.77594 4.05716,-2.6849 C 190.17427,428.65807 192,427.08272 192,426.634 Z m 19.88244,-3.24503 c 6.30158,-1.21607 12.75099,-2.87998 14.33203,-3.69756 5.0677,-2.62061 11.39543,-10.90135 13.6839,-17.90733 3.13477,-9.59688 9.34001,-35.23434 10.67912,-44.12171 5.15149,-34.18909 -6.73303,-54.57107 -34.72926,-59.56076 -15.81981,-2.81953 -28.18087,-1.32062 -45.7149,5.54341 -24.7639,9.69432 -41.33341,22.08119 -44.69949,33.416 -3.19043,10.74332 -1.0463,41.34099 3.11161,44.40417 0.89475,0.65917 3.95993,1.50798 6.81149,1.88627 21.5283,2.85583 46.6502,19.34579 56.19802,36.88828 3.46124,6.35946 3.58949,6.37934 20.32748,3.14923 z m -18.31959,-25.20955 c -18.9639,-19.19628 -23.00984,-21.25781 -45.77188,-23.32205 -8.71557,-0.7904 -7.48566,-2.47023 2.44503,-3.33946 10.85032,-0.94972 27.45272,4.55802 36.378,12.06814 3.93705,3.31282 22.77458,27.85554 22.25773,28.99879 -0.18612,0.41169 -7.07511,-6.07076 -15.30888,-14.40542 z m -61.65173,-25.55718 c -1.52655,-1.52655 -0.47851,-2.57559 5.67793,-5.68336 13.06121,-6.59328 30.4308,-8.15716 48.54428,-4.37071 10.84197,2.2664 21.86667,6.13817 21.86667,7.67935 0,0.65248 -0.6891,0.65876 -1.88781,0.0173 -4.56155,-2.44128 -19.51689,-4.55509 -32.24552,-4.55764 -14.32477,-0.003 -25.49,1.79557 -33.70364,5.42886 -5.24042,2.31808 -7.08743,2.65075 -8.25191,1.48626 z m 169.6516,18.21836 c 2.80717,-0.93102 11.34395,-5.89982 18.97062,-11.04178 12.80642,-8.63419 30.7392,-19.53292 38.4,-23.33777 1.76,-0.87414 3.40295,-1.75843 3.651,-1.96507 0.24805,-0.20666 -1.50625,-2.05107 -3.89843,-4.09869 -4.61733,-3.95227 -8.03897,-11.47166 -7.01022,-15.40562 0.85167,-3.25683 1.95414,-2.70492 5.00885,2.50754 2.73386,4.66499 9.96501,11.30081 12.31466,11.30081 1.78352,0 11.72867,-9.56645 13.49394,-12.98012 0.82877,-1.60266 1.50982,-4.01778 1.51343,-5.36691 0.003,-1.34913 0.64383,-3.67406 1.42271,-5.1665 0.77887,-1.49243 1.72274,-4.24659 2.0975,-6.12035 0.58694,-2.93469 0.35281,-3.47358 -1.68937,-3.88843 -1.30391,-0.26487 -3.81074,-0.77979 -5.57074,-1.14427 -1.76,-0.36448 -4.48017,-0.92224 -6.04482,-1.23947 -1.90715,-0.38666 -3.06838,-1.46747 -3.52305,-3.27905 -1.01,-4.02412 -7.36573,-9.65988 -11.84071,-10.49939 -3.08454,-0.57867 -4.1899,-1.4611 -5.37096,-4.2878 -0.81792,-1.95756 -1.49448,-4.89461 -1.50346,-6.52678 -0.0254,-4.60375 -1.54132,-6.16371 -5.64626,-5.81004 -2.9905,0.25764 -4.26667,-0.35706 -7.20195,-3.46903 -2.30721,-2.44608 -3.8312,-3.35536 -4.31411,-2.57399 -1.30317,2.10856 -5.08752,-7.02049 -6.55344,-15.80892 -0.76808,-4.60476 -1.84273,-8.13229 -2.38813,-7.83895 -1.63193,0.8777 -19.30083,20.62512 -20.55,22.96741 -0.95322,1.7874 -0.51263,3.18762 2.51291,7.98611 4.23072,6.70991 13.00284,15.97981 15.12172,15.97981 2.61799,0 8.82455,-5.58172 11.74189,-10.55975 2.03456,-3.47172 2.97185,-4.34942 3.22744,-3.02225 0.71877,3.73232 -9.22448,15.71533 -13.04024,15.71533 -0.78776,0 -2.03731,0.72901 -2.77677,1.62002 -1.10028,1.32574 -0.9971,2.00387 0.56805,3.73333 2.48118,2.74167 0.5183,2.72848 -2.97584,-0.0201 -1.49165,-1.17334 -3.01327,-2.13334 -3.38138,-2.13334 -0.3681,0 -1.86078,-0.7807 -3.31707,-1.7349 -1.97757,-1.29574 -2.36016,-2.08146 -1.51149,-3.10405 0.8696,-1.04781 0.39169,-1.5327 -2.03626,-2.06595 -3.74556,-0.82267 -7.52836,-5.68514 -5.43114,-6.9813 0.96271,-0.59498 0.73747,-1.13135 -0.8266,-1.9684 -1.81323,-0.97042 -2.06461,-1.90701 -1.60538,-5.98132 0.5149,-4.5682 -0.71654,-6.48736 -2.40728,-3.75168 -0.36679,0.59348 -3.39511,2.82113 -6.72962,4.95034 -10.3263,6.59376 -26.0423,19.10572 -32.39708,25.79225 l -6.06769,6.38446 2.22795,5.69694 c 1.83501,4.69219 2.35062,9.08321 2.92353,24.89695 0.69509,19.18635 0.69814,19.20479 4.29061,25.93343 8.43752,15.80336 23.19517,22.65796 38.12268,17.70715 z m 22.70395,-22.86345 c 0,-3.3025 -4.40138,-4.86069 -9.45394,-3.34691 -9.44752,2.83055 -18.99771,0.0757 -24.44173,-7.05028 -2.77525,-3.63273 -2.92803,-4.48245 -3.43766,-19.1199 -0.38616,-11.09091 -0.20048,-15.2366 0.67278,-15.02246 1.88469,0.46214 13.26926,14.80431 15.05206,18.96242 0.88037,2.05333 1.93038,4.41471 2.33335,5.2475 0.40298,0.83279 2.62474,2.16824 4.93725,2.96769 2.37985,0.82273 6.84667,4.06644 10.29263,7.47433 l 6.08806,6.02079 1.11194,-2.92459 c 0.61156,-1.60853 1.14235,-3.49335 1.17954,-4.18849 0.0372,-0.69514 0.54193,-0.0752 1.12167,1.37769 1.23425,3.0932 0.4049,7.25528 -1.97104,9.89175 -2.22227,2.46593 -3.48491,2.36103 -3.48491,-0.28954 z m -12.93905,-6.26862 c 1.07059,-0.67819 0.44809,-1.25977 -2.32963,-2.1765 -4.86951,-1.60708 -10.911,-8.319 -14.34544,-15.93733 -3.30828,-7.33847 -3.33448,-7.36967 -4.56088,-5.43046 -1.64656,2.6036 -1.15163,11.97567 0.84332,15.96911 3.09766,6.20083 15.36737,10.75861 20.39263,7.57518 z m 6.60703,-3.75993 c -0.71648,-0.86331 -3.54488,-2.39493 -6.28534,-3.40361 -6.43825,-2.36973 -9.18232,-4.88446 -10.67519,-9.78299 -1.39635,-4.58183 -6.00926,-10.73245 -7.17921,-9.5724 -0.99576,0.98737 6.22701,15.77563 8.87581,18.17276 2.02814,1.83544 15.41051,7.27199 16.14795,6.56006 0.23027,-0.22229 -0.16754,-1.11052 -0.88402,-1.97382 z m 11.4083,-16.37727 c 1.91195,-1.59756 3.47195,-3.51169 3.46666,-4.25366 -0.0154,-2.15299 -6.41831,-5.47127 -13.10225,-6.79011 -8.14867,-1.60785 -9.48629,-3.63649 -1.73511,-2.63147 14.14329,1.83383 22.98803,11.41544 14.22373,15.40872 -5.10456,2.32579 -6.61375,1.40882 -2.85303,-1.73348 z m -57.96284,-19.29792 c 0.41535,-0.67205 2.26437,-2.00233 4.10894,-2.9562 2.70933,-1.40104 5.48328,-1.62562 14.43608,-1.16869 15.70858,0.80173 15.97474,2.45567 0.53925,3.35083 -6.92874,0.40182 -14.2271,1.01529 -16.21858,1.36326 -2.57372,0.44972 -3.40247,0.27932 -2.86569,-0.5892 z m 69.35608,-1.77324 c 5.611,-4.24401 22.96925,-8.46747 24.51588,-5.96498 0.40727,0.65899 0.35218,1.20767 -0.12245,1.21929 -5.26241,0.12885 -15.914,2.54063 -18.68671,4.23114 -1.93027,1.17686 -4.46957,2.12628 -5.64291,2.10982 -2.10448,-0.0295 -2.10534,-0.0511 -0.0638,-1.59527 z m -64.46952,-9.03348 c 0,-0.58667 1.17167,-1.06667 2.60371,-1.06667 1.43204,0 2.90037,0.48 3.26296,1.06667 0.38461,0.62231 -0.70004,1.06666 -2.60372,1.06666 -1.79462,0 -3.26295,-0.48 -3.26295,-1.06666 z m 128.68919,20.13782 c 3.60572,-1.11197 6.83066,-2.73788 7.16652,-3.61312 0.33587,-0.87525 1.46573,-1.58402 2.51082,-1.57504 1.61695,0.0139 1.66168,0.17044 0.30014,1.05034 -0.88,0.5687 -1.12,1.03929 -0.53334,1.04577 0.58667,0.006 3.22667,-1.42413 5.86667,-3.17911 3.11345,-2.0697 4.11197,-3.19247 2.84183,-3.19543 -1.40439,-0.003 0.33709,-2.49323 6.15795,-8.80457 15.98594,-17.33298 19.47921,-30.1451 14.03258,-51.46667 -3.20641,-12.55196 -10.07856,-26.90424 -17.8759,-37.33333 -3.07037,-4.10667 -11.84663,-13.76524 -19.50281,-21.46349 -13.40441,-13.47809 -14.37493,-14.21804 -26.18698,-19.9656 -6.74667,-3.28283 -16.76293,-7.24572 -22.25836,-8.80644 -13.1157,-3.72488 -26.70913,-3.35943 -37.55867,1.00973 -3.85936,1.55419 -7.83135,2.82579 -8.82662,2.82579 -3.38867,0 -17.19655,7.68424 -27.35635,15.2241 -6.86204,5.09251 -23.04636,20.47991 -50.13334,47.66472 -22,22.07947 -43.12,42.91835 -46.93333,46.30863 -6.21529,5.52576 -6.60193,6.09357 -3.73334,5.48266 1.76,-0.37482 10.4,-0.9366 19.2,-1.24841 l 16,-0.56691 7.29944,3.30094 c 4.01469,1.81552 7.93312,3.30095 8.70763,3.30095 0.7745,0 4.12843,-5.16 7.45318,-11.46667 8.4638,-16.0549 20.2227,-33.34152 29.93018,-44 12.05252,-13.23328 18.65603,-21.31665 19.73721,-24.16037 0.5241,-1.37846 1.61276,-2.5063 2.41926,-2.5063 0.80649,0 3.45421,-1.44 5.88383,-3.2 2.42961,-1.76 4.71275,-3.2 5.07366,-3.2 0.36091,0 -5.27493,6.15696 -12.5241,13.68212 -29.29158,30.40685 -36.4146,39.75541 -48.68874,63.90122 -4.95101,9.73967 -5.87006,12.33596 -4.90862,13.86667 2.62154,4.17377 4.96888,2.1707 13.26053,-11.31568 4.46322,-7.25947 10.89442,-16.961 14.29153,-21.55898 6.52471,-8.83115 29.95679,-33.14335 33.96668,-35.24245 1.30075,-0.68093 -4.12553,5.43061 -12.05839,13.58119 -15.6936,16.12431 -21.76322,23.55497 -29.72108,36.38569 -5.84897,9.43047 -11.85553,20.96773 -11.85553,22.77181 0,1.85061 4.25642,7.39508 5.6771,7.39508 0.69585,0 5.82316,-4.47393 11.39404,-9.94207 5.57088,-5.46814 13.24886,-11.7608 17.0622,-13.9837 7.89885,-4.60446 21.9676,-16.12605 31.64194,-25.91312 7.15393,-7.23729 17.42472,-21.78496 17.42472,-24.68057 0,-5.47535 18.8473,-34.80531 20.04904,-31.2001 0.23633,0.70899 -2.20005,5.46592 -5.41417,10.57098 -7.82105,12.42234 -9.03014,14.95795 -10.88581,22.82903 -2.89457,12.27769 -1.58963,31.78622 2.1262,31.78622 0.82956,0 2.49477,1.05884 3.70045,2.353 l 2.19215,2.35299 -0.81726,-3.68632 c -1.56275,-7.0489 -0.86884,-24.64189 1.21229,-30.7354 2.27014,-6.64693 12.61002,-22.50148 18.14786,-27.82686 5.53428,-5.32192 4.68982,-2.62678 -1.63704,5.22478 -12.08984,15.00334 -16.28843,25.02327 -16.33547,38.98447 -0.0438,13.02219 1.28003,20.8 3.54049,20.8 1.68331,0 1.81642,-1.13151 1.41168,-12 -0.51142,-13.7332 0.95269,-21.071 6.68078,-33.4826 3.75189,-8.12956 12.99509,-20.62753 15.26634,-20.642 1.81542,-0.0115 0.33002,2.82649 -5.74319,10.97321 -9.80074,13.14687 -14.17486,26.79596 -14.25712,44.48819 -0.035,7.53249 0.15109,8.1812 3.16278,11.02375 2.18603,2.06326 3.22376,4.0901 3.27498,6.39654 0.0413,1.85693 0.4516,4.33625 0.91194,5.50958 0.72559,1.84941 1.41668,1.2376 5.19254,-4.59686 7.50393,-11.59505 12.14265,-29.00612 12.24131,-45.94675 0.0554,-9.50886 0.2661,-10.80124 1.48854,-9.12946 2.24319,3.06777 1.87088,22.92918 -0.61053,32.56911 -3.11317,12.0942 -6.08356,19.1136 -10.60229,25.05453 l -4.12041,5.41724 4.70124,2.494 4.70125,2.49401 6.19753,-6.13286 c 6.48337,-6.41572 12.86709,-17.07346 15.00112,-25.0446 0.69032,-2.57857 1.23523,-10.21721 1.2109,-16.97473 -0.0503,-13.96693 1.32817,-14.87373 3.11216,-2.04731 0.81004,5.82395 0.81329,10.02091 0.0111,14.36866 -2.31008,12.52096 -14.35375,33.1016 -21.81403,37.27659 -1.69053,0.94607 -1.74688,1.37786 -0.47453,3.636 0.7941,1.40933 1.51921,2.71782 1.61136,2.90775 0.35893,0.73979 7.52187,-3.45803 11.76741,-6.89626 6.34396,-5.13761 14.81415,-18.30005 17.52984,-27.24087 1.72173,-5.66847 2.13282,-9.09839 1.68386,-14.04959 -0.42489,-4.68566 -0.28885,-6.00512 0.47786,-4.63507 3.44543,6.15663 1.9067,20.03333 -3.39417,30.6098 -3.6608,7.30414 -14.61086,19.3807 -19.80982,21.84776 -4.8108,2.28288 -3.28327,3.71189 3.99347,3.73591 4.1742,0.0138 5.92825,-0.70585 11.2,-4.59498 11.38884,-8.40188 22.78405,-23.27179 22.78405,-29.73145 0,-1.05814 0.54,-1.9239 1.2,-1.9239 1.6758,0 0.44634,5.46871 -2.86265,12.73319 -3.04378,6.6823 -11.7022,15.45548 -21.1202,21.40014 -6.57281,4.14877 -8.30171,7.97295 -2.90479,6.42513 5.97658,-1.71406 19.86493,-9.62707 25.40212,-14.4731 4.10402,-3.59173 6.76183,-7.26719 10.04217,-13.8872 2.45357,-4.95149 4.6229,-8.84083 4.82076,-8.64297 0.96704,0.96704 -3.00254,10.72202 -6.51879,16.01945 -6.86293,10.33946 -22.33484,21.44022 -31.59482,22.6686 -4.6546,0.61745 -5.16175,0.98746 -6.69152,4.88186 l -1.65521,4.21378 6.07479,-0.73269 c 3.34114,-0.40298 8.90453,-1.86894 12.36309,-3.25768 6.47411,-2.59959 16.64505,-8.63053 16.64505,-9.86979 0,-0.38439 1.08,-1.31822 2.4,-2.07518 1.32,-0.75696 -0.33891,1.24711 -3.68648,4.4535 -7.90265,7.5694 -17.27136,12.15404 -26.98019,13.20295 -6.50601,0.70289 -7.50845,1.09963 -7.79139,3.0836 -0.29652,2.07914 0.16675,2.27717 5.33333,2.27979 3.11194,10e-4 8.6082,-0.90692 12.21392,-2.01889 z M 252.77467,303.53332 c 2.04991,-5.39167 6.904,-14.19682 11.95647,-21.68861 5.39162,-7.99467 17.83249,-21.87593 17.89838,-19.97065 0.0205,0.59073 -3.37168,5.39073 -7.53804,10.66667 -8.93737,11.31756 -16.81041,22.74146 -20.02687,29.05929 -2.51657,4.94306 -3.86806,6.08408 -2.28994,1.9333 z m -12.7567,-4.90052 c -0.0276,-2.50824 12.48694,-22.76647 22.10171,-35.77773 11.54905,-15.62886 48.9271,-52.63815 50.91039,-50.40815 0.17272,0.1942 -5.61179,5.87309 -12.85445,12.61976 -22.21096,20.68988 -41.63366,43.63489 -51.91801,61.33334 -7.30282,12.56752 -8.22097,13.93061 -8.23964,12.23278 z M 220.5824,278.93335 c 7.863,-11.7023 47.24061,-53.69374 59.4176,-63.36167 10.63577,-8.44426 9.72271,-7.29364 -8.13179,10.24749 -9.43164,9.26613 -22.9804,23.31456 -30.10834,31.21874 -16.70415,18.52328 -23.93472,25.99897 -21.17747,21.89544 z m 4.50323,2.23402 c -0.0384,-1.95613 6.02946,-8.99379 20.16192,-23.38425 18.59037,-18.92976 22.57855,-21.20214 5.92468,-3.37574 -22.53481,24.12135 -26.06726,27.74498 -26.0866,26.75999 z m -8.5523,-7.03095 c 0,-0.58497 1.58683,-2.86497 3.5263,-5.06667 18.1768,-20.63446 23.48648,-26.28518 30.49821,-32.45713 9.23274,-8.12695 11.60509,-9.0526 3.21377,-1.25395 -7.67932,7.13693 -30.64593,32.14767 -33.38964,36.36147 -2.23642,3.43471 -3.84864,4.44691 -3.84864,2.41628 z m 91.73334,-68.26974 c 0,-0.58667 0.50833,-1.06667 1.12962,-1.06667 0.62129,0 0.83296,0.48 0.47038,1.06667 -0.36258,0.58667 -0.87091,1.06667 -1.12962,1.06667 -0.25871,0 -0.47038,-0.48 -0.47038,-1.06667 z M 157.33173,168.53499 c 4.11495,-4.21409 4.14781,-4.31281 2.75157,-8.26667 -0.77723,-2.20091 -2.55392,-6.44796 -3.94822,-9.4379 -1.39429,-2.98994 -2.53508,-5.80992 -2.53508,-6.26662 0,-2.35833 -5.82723,-13.36379 -7.07592,-13.36379 -2.49486,0 -10.2456,7.8002 -12.18889,12.26667 -1.02099,2.34666 -2.19476,6.35686 -2.60837,8.91155 -0.71926,4.44245 -0.54954,4.85501 3.89391,9.46595 5.1975,5.39343 13.23879,10.95583 15.83829,10.95583 0.93941,0 3.58213,-1.91926 5.87271,-4.26502 z m 15.9062,-13.03054 c 4.36493,-4.11662 7.02874,-7.48576 7.02874,-8.88984 0,-3.86902 -16.88515,-26.08127 -19.82627,-26.08127 -0.70734,0 -2.81723,1.74389 -4.68864,3.87532 -3.98158,4.53477 -3.87661,6.51512 1.03849,19.59135 1.65388,4.4 3.81235,10.28 4.79662,13.06667 0.98427,2.78666 2.42694,5.06666 3.20595,5.06666 0.77901,0 4.57931,-2.98301 8.44511,-6.62889 z m 15.32012,-12.987 c 0.42641,-0.66266 2.82614,-2.53417 5.33276,-4.15891 6.21976,-4.03156 8.77586,-6.3239 8.77586,-7.87032 0,-1.77765 -11.21549,-10.79213 -16.81675,-13.51649 l -4.55007,-2.21309 -6.9166,3.41072 c -3.80411,1.87591 -6.91658,3.83644 -6.91658,4.35675 0,0.52031 0.80278,1.60479 1.78397,2.40996 2.72915,2.23956 12.08269,16.96581 12.08269,19.02302 0,1.00028 0.29502,2.11372 0.6556,2.47429 0.72794,0.72793 5.35622,-2.03105 6.56912,-3.91593 z M 212,126.0986 c 1.90667,-1.6297 3.46652,-3.66857 3.46634,-4.53084 -1.9e-4,-0.86226 -3.1401,-6.6035 -6.97757,-12.75829 -3.83748,-6.1548 -7.24937,-12.274796 -7.58197,-13.600001 -0.84351,-3.360836 -2.92231,-3.023043 -12.1068,1.967292 -8.65619,4.703289 -11.73591,7.028479 -11.72876,8.855229 0.002,0.64241 3.56494,2.99576 7.91649,5.22966 5.24824,2.69423 10.17036,6.37511 14.6202,10.93333 3.68955,3.77944 7.20713,6.87056 7.81684,6.86919 0.60971,-10e-4 2.66856,-1.33589 4.57523,-2.96557 z m 13.65124,-8.21868 c 3.19849,-2.04605 5.81543,-4.13724 5.81543,-4.64708 0,-1.66527 -22.72185,-18.299501 -24.99655,-18.299501 -1.84522,0 0.15744,4.924454 5.81765,14.305271 3.50839,5.81456 6.3789,10.97456 6.3789,11.46667 0,1.44263 0.85037,1.09864 6.98457,-2.82536 z M 243.2,107.08585 c 0,-0.33228 -2.9083,-3.56252 -6.46288,-7.178324 -3.55458,-3.615803 -7.25807,-7.894187 -8.22998,-9.507521 -0.97191,-1.613333 -2.14777,-2.933333 -2.61303,-2.933333 -0.46524,0 -2.83378,1.44 -5.26339,3.2 -2.42961,1.76 -5.06545,3.2 -5.85743,3.2 -2.91458,0 -1.28596,2.158456 4.69338,6.220238 3.37333,2.29152 8.20878,5.90107 10.74544,8.02124 l 4.61209,3.85484 4.18791,-2.1365 c 2.30334,-1.17508 4.18789,-2.40837 4.18789,-2.74064 z m 11.33682,-4.76413 c 3.15142,-1.80305 5.72985,-3.713733 5.72985,-4.245952 0,-0.53222 -1.66657,-3.572944 -3.7035,-6.757167 -2.03692,-3.184222 -4.88266,-8.455799 -6.32386,-11.714615 -1.83089,-4.139959 -3.3664,-6.112077 -5.0965,-6.545649 -2.60358,-0.652465 -10.3929,1.6762 -14.40902,4.307656 -3.47386,2.27617 -2.44436,6.932302 3.00658,13.597812 4.18072,5.112251 13.70966,14.620705 14.66312,14.631595 0.22192,0.003 2.98192,-1.47062 6.13333,-3.27368 z m 18.03375,-7.868531 c 2.18876,-0.91452 3.6963,-2.211414 3.45398,-2.971342 -0.72105,-2.261129 -23.71239,-19.085002 -24.17691,-17.691414 -0.23419,0.702546 2.1643,6.249254 5.32995,12.326015 6.3791,12.245243 6.23083,12.164937 15.39298,8.336741 z m 13.90608,-5.522835 c 8.17111,-2.698971 8.63391,-3.482251 6.02038,-10.18922 -1.21616,-3.120955 -2.82193,-7.474463 -3.5684,-9.674463 -1.55683,-4.588392 -1.28224,-4.519578 -9.5184,-2.385376 -3.42707,0.888043 -11.09549,1.968044 -17.04093,2.4 l -10.80989,0.785376 9.47618,6.671144 c 5.2119,3.66913 11.13104,8.333888 13.15363,10.366133 4.22308,4.243221 5.12549,4.392045 12.28743,2.026406 z m 15.94394,-6.146832 c 2.63816,-1.929075 1.54849,-4.413126 -5.81984,-13.267079 -5.7602,-6.921582 -8.61876,-8.628588 -6.11194,-3.649772 0.81232,1.613333 2.51847,6.413333 3.79144,10.666667 2.45079,8.188742 3.93291,9.326725 8.14034,6.250184 z m 10.55884,-3.430972 c 2.68077,-1.028712 2.06384,-2.576086 -4.45116,-11.164196 C 295.77713,51.37974 293.1499,49.165269 290.19024,52.731439 c -0.69904,0.84229 -2.67781,1.840429 -4.39728,2.218085 -4.08558,0.897344 -3.95096,1.923711 0.46156,3.519303 3.84352,1.389833 13.84817,10.971681 18.30476,17.531178 2.627,3.866609 4.81269,4.736856 8.42015,3.352545 z m 12.88724,-3.743905 c 2.34667,-0.648705 4.61932,-1.726028 5.05033,-2.394052 1.20046,-1.860572 0.8771,-12.206441 -0.60472,-19.347923 l -1.32797,-6.4 -5.82549,-2.367231 c -7.23146,-2.93856 -15.00729,-3.059923 -21.02548,-0.328162 -2.49334,1.131766 -4.53334,2.444498 -4.53334,2.91718 0,0.472684 3.13648,5.176152 6.96996,10.452152 3.83349,5.276001 7.76348,10.792728 8.73333,12.259395 4.59419,6.947655 5.2656,7.226013 12.56338,5.208641 z M 280.21184,61.250472 c 0.43585,-1.329895 -4.13818,-3.650469 -7.19536,-3.650469 -2.19417,0 -2.51375,0.836723 -1.41409,3.702392 0.76099,1.983118 7.95672,1.939721 8.60945,-0.05192 z"
       id="path3915" />
  </g>
</svg>
