<?xml version="1.0" standalone="no"?>
<!DOCTYPE svg PUBLIC "-//W3C//DTD SVG 20010904//EN"
 "http://www.w3.org/TR/2001/REC-SVG-20010904/DTD/svg10.dtd">
<svg version="1.0" xmlns="http://www.w3.org/2000/svg"
 width="600.000000pt" height="150.000000pt" viewBox="0 0 600.000000 150.000000"
 preserveAspectRatio="xMidYMid meet">

<g transform="translate(0.000000,150.000000) scale(0.100000,-0.100000)"
fill="#000000" stroke="none">
<path d="M1310 990 c-14 -4 -67 -7 -118 -8 -51 -1 -101 -6 -112 -12 -23 -12
-27 -58 -6 -66 11 -4 12 -14 4 -47 -11 -48 3 -149 27 -200 21 -44 86 -77 116
-59 10 7 27 12 37 12 47 0 176 98 165 125 -8 21 -49 18 -70 -4 -10 -11 -42
-31 -71 -46 -75 -37 -108 -22 -122 55 l-7 40 48 0 c44 0 171 14 227 26 14 3
22 12 22 24 0 19 -6 19 -143 13 l-143 -6 2 29 c1 16 2 32 3 36 3 15 72 28 171
32 58 3 106 5 108 5 1 1 2 10 2 21 0 12 -8 21 -22 24 -52 11 -95 13 -118 6z"/>
<path d="M3340 990 c-14 -4 -67 -7 -118 -8 -51 -1 -101 -6 -112 -12 -23 -12
-27 -58 -6 -66 11 -4 12 -14 4 -47 -11 -48 3 -149 27 -200 21 -44 86 -77 116
-59 10 7 27 12 37 12 47 0 176 98 165 125 -8 21 -49 18 -70 -4 -10 -11 -42
-31 -71 -46 -75 -37 -108 -22 -122 55 l-7 40 48 0 c44 0 171 14 227 26 14 3
22 12 22 24 0 19 -6 19 -143 13 l-143 -6 2 29 c1 16 2 32 3 36 3 15 72 28 171
32 58 3 106 5 108 5 1 1 2 10 2 21 0 12 -8 21 -22 24 -52 11 -95 13 -118 6z"/>
<path d="M4680 990 c-14 -4 -67 -7 -118 -8 -51 -1 -100 -6 -110 -11 -19 -10
-224 -7 -285 4 -22 4 -42 3 -50 -3 -14 -12 -334 -9 -400 3 -25 5 -42 3 -52 -5
-11 -9 -36 -11 -85 -7 -78 7 -100 -5 -80 -43 8 -15 19 -20 43 -19 18 2 51 2
75 1 l42 -2 -2 -142 c-2 -79 1 -149 5 -155 5 -7 18 -13 31 -13 21 0 23 6 34
103 7 56 12 125 12 154 l0 51 41 7 c39 7 102 7 204 1 28 -2 67 -4 88 -5 l37
-1 -2 -142 c-2 -79 1 -149 5 -156 5 -6 18 -12 31 -12 21 0 23 6 34 103 7 56
12 125 12 153 l0 52 38 7 c44 8 185 9 211 0 16 -5 18 -11 9 -47 -11 -49 3
-150 27 -201 21 -44 86 -77 116 -59 10 7 27 12 37 12 47 0 176 98 165 125 -8
21 -49 18 -70 -4 -10 -11 -42 -31 -71 -46 -75 -37 -108 -22 -122 55 l-7 40 48
0 c44 0 171 14 227 26 14 3 22 12 22 24 0 19 -6 19 -143 13 l-143 -6 2 29 c1
16 2 32 3 36 3 15 72 28 171 32 58 3 106 5 108 5 1 1 2 10 2 21 0 12 -8 21
-22 24 -52 11 -95 13 -118 6z"/>
<path d="M185 970 c-6 -9 -28 -11 -81 -7 -83 6 -104 -5 -84 -43 8 -15 19 -20
43 -19 18 2 51 2 75 1 l42 -2 -2 -142 c-2 -79 1 -149 5 -155 5 -7 18 -13 31
-13 21 0 23 6 34 103 7 56 12 125 12 154 l0 51 40 7 c84 14 146 9 169 -14 14
-14 29 -20 40 -16 17 5 18 0 15 -67 -3 -40 -2 -101 2 -135 5 -62 6 -63 35 -63
32 0 32 2 29 91 -1 26 4 50 10 54 6 4 35 -14 65 -39 57 -49 156 -106 184 -106
9 0 22 -5 28 -11 7 -7 31 -3 79 13 61 20 69 26 72 51 4 32 -8 34 -63 11 -50
-21 -130 -4 -187 39 -51 39 -59 57 -25 57 39 0 130 31 155 53 42 38 19 82 -57
111 -53 20 -299 40 -316 26 -7 -5 -14 -7 -17 -4 -3 3 -61 7 -129 9 -68 3 -140
7 -160 11 -24 4 -39 2 -44 -6z m613 -85 c29 -9 52 -20 52 -24 0 -22 -155 -53
-220 -43 -26 4 -30 8 -30 36 0 18 3 36 7 39 12 13 139 7 191 -8z"/>
<path d="M1538 908 c0 -40 -2 -127 -2 -193 -1 -116 0 -120 21 -123 37 -5 49
41 52 202 1 28 2 28 24 12 71 -52 158 -103 197 -117 38 -13 45 -20 51 -48 9
-43 25 -59 46 -45 11 7 17 30 19 84 2 41 9 101 16 134 20 108 10 165 -29 166
-30 0 -41 -30 -42 -119 -1 -96 -6 -121 -25 -121 -33 0 -226 143 -226 167 0 3
-11 21 -26 40 -16 21 -33 33 -50 33 -23 0 -24 -3 -26 -72z"/>
<path d="M2058 969 c-46 -17 -32 -77 15 -65 22 5 26 2 31 -28 4 -19 4 -69 0
-112 -5 -61 -11 -81 -27 -94 -23 -19 -16 -40 14 -40 12 0 19 -7 19 -20 0 -30
47 -27 61 4 10 20 22 25 97 35 168 23 222 55 207 122 -4 17 -26 50 -49 73 -41
42 -133 96 -161 96 -9 0 -18 7 -21 15 -3 8 -18 14 -32 13 -15 0 -49 2 -77 6
-27 3 -62 1 -77 -5z m187 -85 c36 -8 99 -50 140 -93 25 -27 27 -33 15 -45 -20
-19 -83 -37 -157 -45 l-63 -6 1 103 c1 90 3 102 18 98 9 -3 30 -8 46 -12z"/>
<path d="M2750 970 c-8 -4 -35 -14 -59 -21 -53 -16 -101 -53 -101 -79 0 -49
64 -85 200 -112 25 -5 59 -12 75 -15 17 -3 41 -13 54 -21 20 -14 21 -17 7 -27
-24 -18 -182 -38 -239 -31 -113 14 -114 15 -109 47 5 31 -7 36 -55 23 -46 -12
-41 -74 8 -99 40 -21 230 -38 277 -25 20 5 55 10 78 10 42 0 97 29 118 62 27
43 -33 103 -118 119 -142 27 -233 56 -218 71 5 5 37 17 72 26 55 16 70 17 124
5 77 -17 106 -11 106 22 0 40 -34 55 -125 54 -44 0 -87 -4 -95 -9z"/>
<path d="M5640 970 c-8 -4 -35 -14 -59 -21 -53 -16 -101 -53 -101 -79 0 -49
64 -85 200 -112 25 -5 59 -12 75 -15 17 -3 41 -13 54 -21 20 -14 21 -17 7 -27
-24 -18 -182 -38 -239 -31 -113 14 -114 15 -109 47 3 23 1 29 -14 29 -39 0
-64 -13 -70 -36 -14 -56 -138 -50 -216 9 -51 39 -58 57 -25 57 39 0 130 31
155 53 42 38 19 82 -57 111 -52 20 -294 40 -319 26 -9 -5 -29 -11 -44 -15 -21
-4 -28 -11 -28 -30 0 -26 29 -48 53 -39 12 4 14 -7 11 -68 -3 -40 -2 -101 2
-135 5 -62 6 -63 35 -63 32 0 32 2 29 91 -1 26 4 50 10 54 6 4 35 -14 65 -39
57 -49 156 -106 184 -106 9 0 22 -5 28 -11 7 -7 31 -3 81 13 44 15 77 21 86
16 28 -16 225 -29 264 -18 20 5 55 10 78 10 42 0 97 29 118 62 27 43 -33 103
-118 119 -142 27 -233 56 -218 71 5 5 37 17 72 26 55 16 70 17 124 5 77 -17
106 -11 106 22 0 40 -34 55 -125 54 -44 0 -87 -4 -95 -9z m-452 -85 c29 -9 52
-20 52 -24 0 -22 -155 -53 -220 -43 -26 4 -30 8 -30 36 0 18 3 36 7 39 12 13
139 7 191 -8z"/>
</g>
</svg>
